<svg xmlns="http://www.w3.org/2000/svg" xmlns:xlink="http://www.w3.org/1999/xlink" version="1.1" width="256" height="256" viewBox="0 0 256 256" xml:space="preserve">

<defs>
</defs>
<g style="stroke: none; stroke-width: 0; stroke-dasharray: none; stroke-linecap: butt; stroke-linejoin: miter; stroke-miterlimit: 10; fill: none; fill-rule: nonzero; opacity: 1;" transform="translate(1.4065934065934016 1.4065934065934016) scale(2.81 2.81)" >
	<path d="M 60.638 69.5 c -0.494 0 -0.982 -0.184 -1.359 -0.533 L 45 55.733 L 30.722 68.967 c -0.583 0.539 -1.432 0.684 -2.16 0.366 c -0.729 -0.318 -1.2 -1.038 -1.2 -1.833 v -45 c 0 -1.104 0.896 -2 2 -2 h 31.275 c 1.104 0 2 0.896 2 2 v 45 c 0 0.795 -0.471 1.515 -1.199 1.833 C 61.181 69.445 60.908 69.5 60.638 69.5 z M 45 51.007 c 0.488 0 0.976 0.178 1.359 0.533 l 12.278 11.38 V 24.5 H 31.363 v 38.419 L 43.641 51.54 C 44.024 51.185 44.512 51.007 45 51.007 z" style="stroke: none; stroke-width: 1; stroke-dasharray: none; stroke-linecap: butt; stroke-linejoin: miter; stroke-miterlimit: 10; fill: rgb(0,0,0); fill-rule: nonzero; opacity: 1;" transform=" matrix(1 0 0 1 0 0) " stroke-linecap="round" />
	<path d="M 45 90 C 20.187 90 0 69.813 0 45 C 0 20.187 20.187 0 45 0 c 24.813 0 45 20.187 45 45 C 90 69.813 69.813 90 45 90 z M 45 4 C 22.393 4 4 22.393 4 45 s 18.393 41 41 41 s 41 -18.393 41 -41 S 67.607 4 45 4 z" style="stroke: none; stroke-width: 1; stroke-dasharray: none; stroke-linecap: butt; stroke-linejoin: miter; stroke-miterlimit: 10; fill: rgb(0,0,0); fill-rule: nonzero; opacity: 1;" transform=" matrix(1 0 0 1 0 0) " stroke-linecap="round" />
</g>
</svg>